<svg width="171" height="32" viewBox="0 0 171 32" fill="none"
    xmlns="http://www.w3.org/2000/svg">
    <path d="M62.1715 8.50299L60.303 9.17031C59.8025 6.7346 58.0675 4.56582 54.5307 4.56582C51.6946 4.56582 49.1254 6.46767 49.1254 9.23704C49.1254 11.3725 50.4601 12.8405 52.8624 13.4078L56.4659 14.2419C60.1362 15.1094 62.405 17.2448 62.405 20.5814C62.405 24.2183 59.3354 27.2212 54.5641 27.2212C49.359 27.2212 46.4895 23.7845 46.0891 20.181L48.0577 19.5471C48.358 22.6167 50.6603 25.3194 54.5641 25.3194C58.2009 25.3194 60.303 23.3174 60.303 20.7483C60.303 18.5461 58.7682 16.9445 56.0655 16.3106L52.4954 15.4765C49.3256 14.7424 47.0234 12.7405 47.0234 9.3705C47.0234 5.70026 50.5602 2.69733 54.464 2.69733C59.302 2.69733 61.5042 5.50006 62.1715 8.50299ZM67.0828 26.7875H65.0808V10.872H67.0828V26.7875ZM64.4135 4.26552C64.4135 3.29791 65.1476 2.59723 66.0818 2.59723C67.016 2.59723 67.7501 3.29791 67.7501 4.26552C67.7501 5.23313 67.016 5.93382 66.0818 5.93382C65.1476 5.93382 64.4135 5.23313 64.4135 4.26552ZM72.9127 17.2782V26.7875H70.9107V10.872H72.8459V13.4078C73.7135 11.7061 75.5819 10.4716 78.0177 10.4716C81.7546 10.4716 83.6565 13.1408 83.6565 16.4107V26.7875H81.6545V16.7444C81.6545 14.2419 80.42 12.2733 77.3503 12.2733C74.6143 12.2733 72.9127 14.5756 72.9127 17.2782ZM88.3314 17.5451H98.9417C98.875 14.5756 96.9731 12.24 93.6365 12.24C90.667 12.24 88.5315 14.6089 88.3314 17.5451ZM99.1753 21.6491L100.944 22.2831C100.043 24.9857 97.6404 27.2212 93.9702 27.2212C89.7661 27.2212 86.2293 24.1182 86.2293 18.7797C86.2293 13.7748 89.6326 10.4382 93.6032 10.4382C98.3077 10.4382 101.01 13.7748 101.044 18.4794C101.044 18.7463 101.044 18.9465 101.01 19.2134H88.2646V19.3469C88.298 23.0171 90.8338 25.4195 93.9702 25.4195C96.8396 25.4195 98.5079 23.7512 99.1753 21.6491ZM114.329 27.2212C108.456 27.2212 102.751 22.8837 102.751 14.976C102.751 7.06826 108.523 2.69733 114.329 2.69733C119.634 2.69733 123.404 5.73362 124.505 10.238L122.603 10.9053C121.669 7.03489 118.599 4.63255 114.329 4.63255C109.491 4.63255 104.886 8.20269 104.886 14.976C104.886 21.7159 109.491 25.286 114.329 25.286C118.766 25.286 121.803 22.6167 122.77 18.9131L124.605 19.5805C123.471 24.0181 119.667 27.2212 114.329 27.2212ZM129.079 17.2115V26.7875H127.077V2.69733H129.079V13.3744C129.914 11.7728 131.715 10.4382 134.184 10.4382C137.955 10.4382 139.823 13.1075 139.823 16.3773V26.7875H137.821V16.711C137.821 14.2085 136.52 12.24 133.517 12.24C130.814 12.24 129.079 14.6089 129.079 17.2115ZM147.534 27.1879C144.198 27.1879 142.329 24.9857 142.329 22.6835C142.329 19.9808 144.198 18.4126 147.101 17.9789L151.338 17.3449C152.706 17.1447 153.006 16.5442 153.006 15.8101C153.006 13.7081 151.605 12.2066 149.002 12.2066C146.467 12.2066 144.798 13.608 144.531 15.9102L142.663 15.5098C143.03 12.4735 145.566 10.4716 148.969 10.4716C153.106 10.4716 155.008 12.974 155.008 16.0103V24.0515C155.008 25.3194 155.108 26.1202 155.242 26.7875H153.273C153.207 26.4205 153.073 25.3527 153.073 24.0515C152.339 25.5529 150.437 27.1879 147.534 27.1879ZM147.768 25.4862C150.804 25.4862 153.006 23.4843 153.006 20.2811V18.4794C152.906 18.5795 152.473 18.7797 151.839 18.8798L147.401 19.5471C145.532 19.814 144.365 20.8484 144.365 22.5834C144.365 24.0515 145.566 25.4862 147.768 25.4862ZM161.752 5.83372V10.872H165.889V12.6737H161.752V22.2831C161.752 24.2183 162.653 25.1525 164.455 25.1525C165.022 25.1525 165.589 25.0191 165.889 24.8856V26.654C165.623 26.7875 164.889 26.9543 163.921 26.9543C161.352 26.9543 159.75 25.3861 159.75 22.4833V12.6737H156.38V10.872H157.581C159.15 10.872 159.817 10.1713 159.817 8.53635V5.83372H161.752Z" fill="white"/>
    <g clip-path="url(#clip0_972_6366)">
        <path fill-rule="evenodd" clip-rule="evenodd" d="M3.31915 14.3351C3.30221 13.203 4.93789 8.26765 5.42832 7.05339L2.00542 6.62913C1.42859 7.96878 -1.33373 17.605 0.82613 17.2324C5.45983 17.1734 10.122 17.2003 14.7608 17.2068C14.732 16.9654 13.9912 14.4629 13.9027 14.3404L3.31943 14.3351H3.31915ZM5.42832 7.05339L5.42916 7.05113C5.8815 5.93194 6.42486 4.85661 7.06919 4.00215C8.12286 2.63429 8.87012 2.5192 10.1353 3.82556C11.0461 4.76606 11.9152 6.27397 12.7028 7.95495L16.0425 8.36878C14.0689 3.74037 10.9206 -1.53205 6.87313 0.435818C4.47702 1.60085 2.92844 4.35561 2.00528 6.62927L5.42818 7.05353L5.42832 7.05339ZM12.7029 7.95495C13.9115 10.5347 14.9279 13.5223 15.6078 15.4941L15.9219 16.4051C16.7875 18.8581 17.5835 21.3926 18.7398 23.9006C20.1992 27.0659 23.3493 32.9618 27.6812 31.2654C29.7699 30.4475 31.2744 28.1593 32.2611 26.2222C33.0342 24.7045 33.8134 22.5766 34.3503 20.9421C34.8096 19.5441 35.2559 17.9429 35.5895 16.5091C35.6908 16.0737 35.8251 14.8401 35.6566 14.4627C35.5845 14.301 35.2275 14.3356 35.0772 14.3351C32.5733 14.327 30.0575 14.3457 27.5514 14.3447C24.9237 14.3438 22.2955 14.3394 19.6678 14.3429L20.3429 16.4044L20.5471 17.0899C20.5887 17.2297 20.5426 17.2032 20.7104 17.2503C20.7342 17.2523 21.3995 17.2123 22.3309 17.2255C24.2485 17.2523 26.2162 17.2212 28.1397 17.2199C29.58 17.219 31.0205 17.218 32.4608 17.2171C32.3023 18.1558 31.7801 19.6238 31.4747 20.5701C30.8763 22.424 29.9481 24.6913 28.9301 26.3429C28.1719 27.54 26.8216 29.3297 25.2453 28.3768C22.6851 26.8291 20.364 20.6152 19.3847 17.7517C19.3015 17.5084 19.2198 17.2929 19.1152 17.0579C19.064 17.0493 19.0245 17.0439 18.9936 17.0393C19.0231 17.0403 19.0603 17.0396 19.1076 17.0383C19.0657 16.8531 18.8706 16.1941 18.7659 16.0761C18.7638 16.1108 18.7611 16.1436 18.7575 16.1749C18.7571 15.6219 18.0665 13.7901 17.8804 13.2553C17.486 12.1214 16.8665 10.3012 16.0425 8.36892L12.7028 7.95509L12.7029 7.95495ZM16.3442 16.1785C16.351 16.1813 16.3582 16.1844 16.3653 16.1876C16.3666 16.2029 16.3673 16.2187 16.3674 16.235C16.3635 16.2125 16.3563 16.1933 16.3442 16.1785ZM16.3734 16.6974C16.3811 16.7092 16.3909 16.7184 16.4032 16.7245L16.3821 16.7269C16.3789 16.7171 16.3759 16.7073 16.3734 16.6974ZM16.7211 16.5947C16.7615 16.5566 16.7942 16.5132 16.8213 16.4662L16.7211 16.5947ZM16.9801 15.8996C17.0116 15.7525 17.0537 15.6277 17.1542 15.5677C17.1023 15.6085 17.0549 15.6696 17.027 15.7445C17.0082 15.795 16.9931 15.8472 16.9799 15.8998L16.9801 15.8996ZM17.3529 15.5316C17.3592 15.5322 17.3655 15.5328 17.3719 15.5335C17.3765 15.5487 17.3807 15.5631 17.3845 15.5769C17.3771 15.5572 17.3662 15.5422 17.3527 15.5316H17.3529ZM17.4058 15.6566C17.4302 15.7542 17.4361 15.8019 17.4494 15.814C17.4253 15.8167 17.4312 15.7693 17.4058 15.6566ZM17.5313 15.7632C17.5881 15.7158 17.6843 15.6422 17.8548 15.562C17.9945 15.4961 18.0964 15.468 18.1689 15.469C17.9712 15.47 17.6338 15.6916 17.5314 15.7632H17.5313ZM18.278 15.5072C18.3903 15.6164 18.2832 15.9398 18.1993 16.2281C18.2665 15.98 18.35 15.7057 18.3084 15.562C18.3018 15.5391 18.2914 15.5212 18.278 15.5072ZM18.1547 16.714C18.1783 16.738 18.2155 16.7472 18.2713 16.7367L18.1547 16.714ZM18.5488 16.5981C18.6095 16.5462 18.6617 16.4828 18.6988 16.4119C18.666 16.484 18.6184 16.5445 18.5488 16.5981ZM16.2052 17.0436C16.218 17.0374 16.2363 17.0363 16.2621 17.0341C16.2436 17.0379 16.2246 17.0411 16.2052 17.0436ZM16.7454 16.83C16.7731 16.8099 16.7661 16.8135 16.7661 16.8414C16.7625 16.8329 16.7555 16.8294 16.7454 16.83ZM17.0673 16.9671C17.0869 16.9493 17.1057 16.9293 17.1229 16.9075L17.0673 16.9671ZM17.2214 16.714C17.2567 16.6088 17.2931 16.4985 17.338 16.3926C17.2936 16.5034 17.2593 16.6156 17.2214 16.714ZM17.8264 15.8634C17.8343 15.8606 17.8425 15.8579 17.8506 15.8552L17.8264 15.8634ZM17.7129 16.4548C17.6526 16.7187 17.6544 16.9604 17.9649 17.0222C18.0115 17.0315 18.0581 17.0329 18.1045 17.0281C17.9583 17.0538 17.8224 17.0243 17.7313 16.8837C17.66 16.774 17.6744 16.619 17.7129 16.4548ZM18.8739 16.9869C18.8772 16.993 18.8807 16.9984 18.8845 17.003L18.8739 16.9869ZM4.25561 14.4051C4.59507 14.4051 6.41954 14.3903 7.53763 14.4007C7.47265 14.4031 7.41719 14.4051 7.377 14.4051C6.33649 14.4054 5.29612 14.4052 4.25561 14.4052V14.4051ZM8.31108 14.4191C8.36485 14.4226 8.40042 14.4265 8.41345 14.4311C8.41989 14.4333 8.43362 14.4435 8.45322 14.4603C8.41527 14.4425 8.36668 14.4291 8.31108 14.4191ZM2.08567 16.1676C2.35244 15.8883 2.48268 15.7934 2.08567 16.1676V16.1676ZM1.2013 17.0522C1.23141 17.0199 1.26824 16.9792 1.3181 16.9305C1.88162 16.3807 1.54188 16.7491 1.2013 17.0522ZM1.00636 17.2008C0.988859 17.2098 0.974014 17.2152 0.962251 17.216C0.932562 17.2181 0.908475 17.2201 0.888869 17.2219C0.940684 17.2135 0.977375 17.2077 1.00636 17.2008ZM21.5086 15.4802C21.5926 15.5115 21.653 15.5562 21.693 15.6072C21.643 15.5521 21.5757 15.5109 21.5086 15.4802ZM21.7321 15.9126C21.6928 16.005 21.6101 16.0776 21.5043 16.0913C21.5943 16.0683 21.6845 15.9999 21.7321 15.9126ZM21.3266 16.0606C21.288 16.0412 21.2743 16.0198 21.2746 15.9988C21.2864 16.0192 21.3082 16.0453 21.3266 16.0606ZM21.2962 15.9507C21.312 15.9316 21.3333 15.9153 21.3488 15.904C21.3343 15.9305 21.3132 15.9421 21.2962 15.9507ZM21.3562 15.7321C21.3481 15.7225 21.3383 15.714 21.3271 15.7067L21.3522 15.7126L21.3562 15.7322V15.7321ZM21.1189 15.6802C20.9109 15.7195 20.6528 15.9171 20.6266 16.3208C20.6307 16.1129 20.7245 15.9105 20.8938 15.7782C20.9778 15.7126 21.0469 15.6852 21.1189 15.6802ZM20.7718 16.7659C20.7838 16.7723 20.7962 16.7771 20.8091 16.7799L20.787 16.7852C20.7818 16.7789 20.7767 16.7724 20.7718 16.7659ZM21.0185 16.6865C21.0938 16.606 21.1439 16.506 21.1893 16.4064C21.157 16.4995 21.1262 16.6054 21.0185 16.6865ZM21.2827 16.2459C21.3415 16.1817 21.4131 16.1785 21.5674 16.1955C21.4198 16.1803 21.3358 16.2023 21.2827 16.2459Z" fill="url(#paint0_linear_972_6366)"/>
        <path d="M5.42832 7.05339C4.93789 8.26765 3.30221 13.203 3.31915 14.3351H3.31943L13.9027 14.3404C13.9912 14.4629 14.732 16.9654 14.7608 17.2068C10.122 17.2003 5.45983 17.1734 0.82613 17.2324C-1.33373 17.605 1.42859 7.96878 2.00542 6.62913L5.42832 7.05339ZM5.42832 7.05339L5.42916 7.05113C5.8815 5.93194 6.42486 4.85661 7.06919 4.00215C8.12286 2.63429 8.87013 2.5192 10.1353 3.82556C11.0461 4.76606 11.9152 6.27397 12.7028 7.95495L16.0425 8.36878C14.0689 3.74037 10.9206 -1.53205 6.87313 0.435818C4.47702 1.60085 2.92844 4.35561 2.00528 6.62927L5.42818 7.05353L5.42832 7.05339ZM16.7211 16.5947C16.7615 16.5566 16.7942 16.5132 16.8213 16.4662M18.1547 16.714C18.1783 16.738 18.2155 16.7472 18.2713 16.7367M17.0675 16.9671C17.0871 16.9493 17.1058 16.9293 17.1231 16.9075M17.8265 15.8634C17.8345 15.8606 17.8426 15.8579 17.8507 15.8552M18.874 16.9869C18.8774 16.993 18.8809 16.9984 18.8846 17.003M12.7029 7.95495C13.9115 10.5347 14.9279 13.5223 15.6078 15.4941L15.9219 16.4051C16.7875 18.8581 17.5835 21.3926 18.7398 23.9006C20.1992 27.0659 23.3493 32.9618 27.6812 31.2654C29.7699 30.4475 31.2744 28.1593 32.2611 26.2222C33.0342 24.7045 33.8134 22.5766 34.3503 20.9421C34.8096 19.5441 35.2559 17.9429 35.5895 16.5091C35.6908 16.0737 35.8251 14.8401 35.6566 14.4627C35.5845 14.301 35.2275 14.3356 35.0772 14.3351C32.5733 14.327 30.0575 14.3457 27.5514 14.3447C24.9237 14.3438 22.2955 14.3394 19.6678 14.3429L20.3429 16.4044L20.5471 17.0899C20.5887 17.2297 20.5426 17.2032 20.7104 17.2503C20.7342 17.2523 21.3995 17.2123 22.3309 17.2255C24.2485 17.2522 26.2162 17.2212 28.1397 17.22C29.58 17.219 31.0205 17.218 32.4608 17.2171C32.3023 18.1558 31.7801 19.6238 31.4747 20.5701C30.8763 22.424 29.9481 24.6913 28.9301 26.3429C28.1719 27.54 26.8216 29.3297 25.2453 28.3768C22.6851 26.8291 20.364 20.6152 19.3847 17.7517C19.3016 17.5084 19.2198 17.2929 19.1152 17.0579C19.064 17.0493 19.0245 17.0439 18.9936 17.0393C19.0231 17.0403 19.0603 17.0396 19.1076 17.0383C19.0657 16.8531 18.8706 16.1941 18.7659 16.0761C18.7638 16.1108 18.7611 16.1436 18.7575 16.1749C18.7571 15.6219 18.0665 13.7901 17.8804 13.2553C17.486 12.1214 16.8665 10.3012 16.0425 8.36892L12.7028 7.95509L12.7029 7.95495ZM16.3442 16.1785C16.351 16.1813 16.3582 16.1844 16.3653 16.1876C16.3666 16.2029 16.3673 16.2187 16.3674 16.235C16.3635 16.2125 16.3563 16.1933 16.3442 16.1785ZM16.3734 16.6974C16.3811 16.7092 16.3909 16.7184 16.4032 16.7245L16.3821 16.7269C16.3789 16.7171 16.3759 16.7073 16.3734 16.6974ZM16.9801 15.8996C17.0116 15.7525 17.0537 15.6277 17.1542 15.5677C17.1023 15.6085 17.0549 15.6696 17.027 15.7445C17.0082 15.795 16.9931 15.8472 16.9799 15.8998L16.9801 15.8996ZM17.3529 15.5316C17.3592 15.5322 17.3655 15.5328 17.3719 15.5335C17.3765 15.5487 17.3807 15.5631 17.3845 15.5769C17.3771 15.5572 17.3662 15.5422 17.3527 15.5316H17.3529ZM17.4058 15.6566C17.4302 15.7542 17.4361 15.8019 17.4494 15.814C17.4253 15.8167 17.4312 15.7693 17.4058 15.6566ZM17.5313 15.7632C17.5881 15.7158 17.6843 15.6422 17.8548 15.562C17.9945 15.4961 18.0964 15.468 18.1689 15.469C17.9712 15.47 17.6338 15.6916 17.5314 15.7632H17.5313ZM18.278 15.5072C18.3903 15.6164 18.2832 15.9398 18.1993 16.2281C18.2665 15.98 18.35 15.7057 18.3084 15.562C18.3018 15.5391 18.2914 15.5212 18.278 15.5072ZM18.549 16.5981C18.6096 16.5462 18.6618 16.4828 18.6989 16.4119C18.6662 16.484 18.6186 16.5445 18.549 16.5981ZM16.2054 17.0436C16.2181 17.0374 16.2365 17.0363 16.2622 17.0341C16.2437 17.0379 16.2247 17.0411 16.2054 17.0436ZM16.7455 16.83C16.7732 16.8099 16.7662 16.8135 16.7662 16.8414C16.7626 16.8329 16.7556 16.8294 16.7455 16.83ZM17.2215 16.714C17.2568 16.6088 17.2932 16.4985 17.3382 16.3926C17.2938 16.5034 17.2595 16.6156 17.2215 16.714ZM17.7131 16.4548C17.6527 16.7187 17.6545 16.9604 17.965 17.0222C18.0116 17.0315 18.0583 17.0329 18.1046 17.0281C17.9584 17.0538 17.8226 17.0243 17.7314 16.8837C17.6601 16.774 17.6745 16.619 17.7131 16.4548ZM4.25561 14.4051C4.59507 14.4051 6.41954 14.3903 7.53763 14.4007C7.47265 14.4031 7.41719 14.4051 7.377 14.4051C6.33649 14.4054 5.29612 14.4052 4.25561 14.4052V14.4051ZM8.31108 14.4191C8.36485 14.4226 8.40043 14.4265 8.41345 14.4311C8.41989 14.4333 8.43362 14.4435 8.45322 14.4603C8.41527 14.4425 8.36668 14.4291 8.31108 14.4191ZM2.08567 16.1676C2.35244 15.8883 2.48268 15.7934 2.08567 16.1676ZM1.2013 17.0522C1.23141 17.0199 1.26824 16.9792 1.3181 16.9305C1.88162 16.3807 1.54188 16.7491 1.2013 17.0522ZM1.00636 17.2008C0.988859 17.2098 0.974014 17.2152 0.962251 17.216C0.932562 17.2181 0.908475 17.2201 0.888869 17.2219C0.940685 17.2135 0.977375 17.2077 1.00636 17.2008ZM21.5086 15.4802C21.5926 15.5115 21.653 15.5562 21.693 15.6072C21.643 15.5521 21.5757 15.5109 21.5086 15.4802ZM21.7321 15.9126C21.6928 16.005 21.6101 16.0776 21.5043 16.0913C21.5943 16.0683 21.6845 15.9999 21.7321 15.9126ZM21.3266 16.0606C21.288 16.0412 21.2743 16.0198 21.2746 15.9988C21.2864 16.0192 21.3082 16.0453 21.3266 16.0606ZM21.2962 15.9507C21.312 15.9316 21.3333 15.9153 21.3488 15.904C21.3343 15.9305 21.3132 15.9421 21.2962 15.9507ZM21.3562 15.7321C21.3481 15.7225 21.3383 15.714 21.3271 15.7067L21.3522 15.7126L21.3562 15.7322V15.7321ZM21.1189 15.6802C20.9109 15.7195 20.6528 15.9171 20.6266 16.3208C20.6307 16.1129 20.7245 15.9105 20.8938 15.7782C20.9778 15.7126 21.0469 15.6852 21.1189 15.6802ZM20.7718 16.7659C20.7838 16.7723 20.7962 16.7771 20.8091 16.7799L20.787 16.7852C20.7818 16.7789 20.7767 16.7724 20.7718 16.7659ZM21.0185 16.6865C21.0938 16.606 21.1439 16.506 21.1893 16.4064C21.157 16.4995 21.1262 16.6054 21.0185 16.6865ZM21.2827 16.2459C21.3415 16.1817 21.4131 16.1785 21.5674 16.1955C21.4198 16.1803 21.3358 16.2023 21.2827 16.2459Z" stroke="url(#paint1_linear_972_6366)" stroke-width="0.449497" stroke-miterlimit="2.61313" stroke-linecap="round" stroke-linejoin="round"/>
    </g>
    <defs>
        <linearGradient id="paint0_linear_972_6366" x1="17.8749" y1="0.0122986" x2="17.8749" y2="31.566" gradientUnits="userSpaceOnUse">
            <stop stop-color="#00DF53"/>
            <stop offset="0.729167" stop-color="#1489C8"/>
        </linearGradient>
        <linearGradient id="paint1_linear_972_6366" x1="17.8749" y1="0.0122986" x2="17.8749" y2="31.566" gradientUnits="userSpaceOnUse">
            <stop stop-color="#00DF53"/>
            <stop offset="0.729167" stop-color="#1489C8"/>
        </linearGradient>
        <clipPath id="clip0_972_6366">
            <rect width="35.7491" height="31.5784" fill="white"/>
        </clipPath>
    </defs>
</svg>
