<svg width="293" height="54" viewBox="0 0 293 54" fill="none"
    xmlns="http://www.w3.org/2000/svg">
    <path d="M106.315 14.7896C105.174 9.65453 101.408 4.86177 93.1349 4.86177C86.4593 4.86177 80.4113 9.99687 80.4113 16.2731C80.4113 22.0358 84.3482 25.4592 89.7686 26.7145L95.8737 28.1409C100.495 29.2249 103.12 31.9637 103.12 35.7294C103.12 40.1228 99.5253 43.5462 93.3061 43.5462C86.6305 43.5462 82.6936 38.9246 82.1801 33.6754L78.8137 34.7594C79.4984 40.9215 84.4053 46.7984 93.3061 46.7984C101.465 46.7984 106.714 41.6633 106.714 35.4441C106.714 29.7385 102.835 26.0868 96.5583 24.6034L90.3962 23.1769C86.2881 22.207 84.0059 19.6965 84.0059 16.0449C84.0059 11.3092 88.3992 8.05695 93.2491 8.05695C99.2971 8.05695 102.264 11.7656 103.12 15.9308L106.315 14.7896ZM114.713 46.0566V18.8406H111.29V46.0566H114.713ZM110.149 7.54344C110.149 9.19808 111.404 10.3963 113.002 10.3963C114.599 10.3963 115.855 9.19808 115.855 7.54344C115.855 5.88879 114.599 4.69061 113.002 4.69061C111.404 4.69061 110.149 5.88879 110.149 7.54344ZM124.683 29.7955C124.683 25.1739 127.593 21.237 132.271 21.237C137.521 21.237 139.632 24.6034 139.632 28.8826V46.0566H143.055V28.312C143.055 22.7205 139.803 18.156 133.412 18.156C129.247 18.156 126.052 20.2671 124.569 23.1769V18.8406H121.259V46.0566H124.683V29.7955ZM151.049 30.252C151.392 25.231 155.043 21.18 160.121 21.18C165.827 21.18 169.079 25.1739 169.193 30.252H151.049ZM169.593 37.2699C168.451 40.8645 165.599 43.7173 160.692 43.7173C155.328 43.7173 150.992 39.6092 150.935 33.333V33.1048H172.731C172.788 32.6483 172.788 32.306 172.788 31.8495C172.731 23.8046 168.109 18.0989 160.064 18.0989C153.274 18.0989 147.455 23.8046 147.455 32.3631C147.455 41.4921 153.503 46.7984 160.692 46.7984C166.968 46.7984 171.076 42.9756 172.617 38.354L169.593 37.2699ZM195.505 46.7984C204.634 46.7984 211.139 41.3209 213.079 33.7324L209.94 32.5913C208.286 38.9246 203.094 43.4891 195.505 43.4891C187.232 43.4891 179.358 37.384 179.358 25.8586C179.358 14.2761 187.232 8.17106 195.505 8.17106C202.808 8.17106 208.058 12.2791 209.655 18.8977L212.907 17.7566C211.025 10.0539 204.577 4.86177 195.505 4.86177C185.577 4.86177 175.707 12.3362 175.707 25.8586C175.707 39.381 185.463 46.7984 195.505 46.7984ZM220.73 29.6814C220.73 25.231 223.696 21.18 228.318 21.18C233.453 21.18 235.678 24.5463 235.678 28.8255V46.0566H239.102V28.255C239.102 22.6634 235.907 18.0989 229.459 18.0989C225.237 18.0989 222.156 20.3812 220.73 23.1199V4.86177H217.306V46.0566H220.73V29.6814ZM252.288 46.7413C257.252 46.7413 260.504 43.9455 261.759 41.378C261.759 43.6032 261.988 45.429 262.102 46.0566H265.468C265.24 44.9155 265.069 43.5462 265.069 41.378V27.6274C265.069 22.4352 261.817 18.156 254.742 18.156C248.922 18.156 244.585 21.5794 243.958 26.7715L247.153 27.4562C247.609 23.5193 250.462 21.1229 254.799 21.1229C259.249 21.1229 261.645 23.6905 261.645 27.285C261.645 28.5403 261.132 29.5673 258.793 29.9096L251.546 30.9937C246.582 31.7354 243.387 34.4171 243.387 39.0387C243.387 42.9756 246.582 46.7413 252.288 46.7413ZM252.687 43.8314C248.922 43.8314 246.868 41.378 246.868 38.8675C246.868 35.9006 248.865 34.1318 252.06 33.6754L259.648 32.5342C260.732 32.3631 261.474 32.0207 261.645 31.8495V34.9306C261.645 40.408 257.88 43.8314 252.687 43.8314ZM276.601 10.2251H273.292V14.8467C273.292 17.6425 272.15 18.8406 269.469 18.8406H267.415V21.9217H273.177V38.6963C273.177 43.6603 275.916 46.3419 280.31 46.3419C281.964 46.3419 283.219 46.0566 283.676 45.8284V42.8044C283.162 43.0326 282.192 43.2609 281.222 43.2609C278.141 43.2609 276.601 41.6633 276.601 38.354V21.9217H283.676V18.8406H276.601V10.2251Z" fill="black"/>
    <g clip-path="url(#clip0_999_1845)">
        <path fill-rule="evenodd" clip-rule="evenodd" d="M5.67599 24.5135C5.64702 22.5775 8.44409 14.1379 9.28273 12.0615L3.42947 11.336C2.44307 13.6268 -2.28058 30.1051 1.41285 29.4678C9.33661 29.367 17.309 29.4131 25.2416 29.4242C25.1923 29.0113 23.9255 24.732 23.7741 24.5224L5.67647 24.5135H5.67599ZM9.28273 12.0615L9.28417 12.0576C10.0577 10.1438 10.9868 8.30494 12.0887 6.8438C13.8905 4.50472 15.1683 4.3079 17.3317 6.54182C18.8893 8.15009 20.3755 10.7287 21.7223 13.6032L27.4333 14.3109C24.0584 6.39614 18.6747 -2.61985 11.7534 0.745257C7.65598 2.7375 5.00786 7.44822 3.42923 11.3362L9.28249 12.0617L9.28273 12.0615ZM21.7225 13.6032C23.7892 18.0146 25.5273 23.1235 26.69 26.4954L27.2271 28.0533C28.7073 32.2478 30.0685 36.582 32.0458 40.8707C34.5414 46.2835 39.9282 56.3656 47.3359 53.4648C50.9076 52.0661 53.4803 48.1532 55.1677 44.8407C56.4896 42.2455 57.822 38.6066 58.7402 35.8117C59.5256 33.421 60.2888 30.683 60.8593 28.231C61.0324 27.4865 61.2621 25.377 60.974 24.7316C60.8507 24.4552 60.2402 24.5142 59.9833 24.5135C55.7015 24.4995 51.3993 24.5316 47.1139 24.5299C42.6203 24.5282 38.1261 24.5208 33.6326 24.5268L34.7871 28.0521L35.1363 29.2242C35.2074 29.4633 35.1286 29.4179 35.4155 29.4985C35.4562 29.5019 36.594 29.4336 38.1867 29.456C41.4658 29.5019 44.8307 29.4488 48.1199 29.4466C50.5829 29.4449 53.0462 29.4432 55.5092 29.4418C55.2381 31.0469 54.3451 33.5573 53.8228 35.1754C52.7995 38.3456 51.2122 42.2228 49.4715 45.0472C48.175 47.0942 45.866 50.1546 43.1704 48.5252C38.7923 45.8786 34.8233 35.2526 33.1486 30.3559C33.0064 29.9399 32.8665 29.5713 32.6876 29.1695C32.6002 29.1548 32.5327 29.1456 32.4798 29.1377C32.5303 29.1393 32.5938 29.1381 32.6747 29.136C32.6031 28.8193 32.2695 27.6924 32.0904 27.4906C32.0868 27.5499 32.0822 27.6061 32.076 27.6596C32.0753 26.7139 30.8944 23.5816 30.5762 22.667C29.9018 20.728 28.8424 17.6154 27.4333 14.3111L21.7223 13.6034L21.7225 13.6032ZM27.9491 27.6657C27.9609 27.6705 27.9731 27.6758 27.9853 27.6813C27.9874 27.7074 27.9886 27.7344 27.9889 27.7624C27.9822 27.7238 27.97 27.691 27.9491 27.6657ZM27.9992 28.553C28.0123 28.5733 28.0291 28.5889 28.0502 28.5993L28.014 28.6034C28.0085 28.5868 28.0035 28.5699 27.9992 28.553ZM28.5938 28.3774C28.6628 28.3123 28.7188 28.238 28.765 28.1577L28.5938 28.3774ZM29.0366 27.1888C29.0905 26.9373 29.1625 26.7238 29.3343 26.6213C29.2456 26.691 29.1645 26.7954 29.1168 26.9235C29.0847 27.0099 29.0589 27.0991 29.0363 27.1891L29.0366 27.1888ZM29.6741 26.5596C29.6848 26.5605 29.6956 26.5615 29.7066 26.5627C29.7145 26.5887 29.7217 26.6133 29.7282 26.637C29.7155 26.6032 29.6968 26.5776 29.6738 26.5596H29.6741ZM29.7646 26.7733C29.8063 26.9402 29.8163 27.0217 29.8391 27.0424C29.7979 27.047 29.8079 26.966 29.7646 26.7733ZM29.9792 26.9556C30.0764 26.8746 30.2409 26.7486 30.5323 26.6114C30.7713 26.4988 30.9454 26.4508 31.0695 26.4525C30.7313 26.4542 30.1545 26.8331 29.9794 26.9556H29.9792ZM31.256 26.5178C31.4481 26.7045 31.2649 27.2576 31.1215 27.7506C31.2364 27.3263 31.3791 26.8572 31.308 26.6114C31.2968 26.5723 31.279 26.5417 31.256 26.5178ZM31.0453 28.5815C31.0855 28.6225 31.1492 28.6381 31.2445 28.6203L31.0453 28.5815ZM31.7192 28.3832C31.8229 28.2944 31.9122 28.1862 31.9757 28.0648C31.9196 28.1881 31.8382 28.2916 31.7192 28.3832ZM27.7116 29.1451C27.7334 29.1345 27.7647 29.1326 27.8088 29.1287C27.7772 29.1352 27.7446 29.1408 27.7116 29.1451ZM28.6352 28.7797C28.6826 28.7455 28.6707 28.7515 28.6707 28.7993C28.6644 28.7848 28.6525 28.7788 28.6352 28.7797ZM29.1858 29.0142C29.2193 28.9838 29.2514 28.9495 29.2808 28.9124L29.1858 29.0142ZM29.4492 28.5815C29.5095 28.4015 29.5718 28.2129 29.6487 28.0318C29.5728 28.2214 29.5141 28.4131 29.4492 28.5815ZM30.4837 27.1268C30.4974 27.122 30.5113 27.1174 30.5252 27.1128L30.4837 27.1268ZM30.2898 28.1382C30.1865 28.5894 30.1897 29.0028 30.7206 29.1085C30.8003 29.1244 30.8801 29.1268 30.9593 29.1186C30.7093 29.1625 30.477 29.1121 30.3211 28.8716C30.1992 28.684 30.2239 28.4189 30.2898 28.1382ZM32.275 29.0482C32.2808 29.0585 32.2867 29.0677 32.2932 29.0757L32.275 29.0482ZM7.27736 24.6332C7.85785 24.6332 10.9777 24.6078 12.8897 24.6257C12.7786 24.6298 12.6838 24.6332 12.615 24.6332C10.8357 24.6336 9.05667 24.6334 7.27736 24.6334V24.6332ZM14.2123 24.657C14.3043 24.6631 14.3651 24.6698 14.3874 24.6775C14.3984 24.6814 14.4219 24.6988 14.4554 24.7275C14.3905 24.6971 14.3074 24.6742 14.2123 24.657ZM3.56669 27.6471C4.02289 27.1695 4.24561 27.0072 3.56669 27.6471V27.6471ZM2.05441 29.1598C2.10589 29.1046 2.16887 29.0349 2.25413 28.9517C3.21778 28.0115 2.63681 28.6415 2.05441 29.1598ZM1.72106 29.4138C1.69112 29.4293 1.66574 29.4384 1.64562 29.4399C1.59485 29.4435 1.55366 29.4469 1.52014 29.45C1.60874 29.4355 1.67148 29.4256 1.72106 29.4138ZM36.7805 26.4715C36.9242 26.5251 37.0274 26.6015 37.0959 26.6888C37.0104 26.5945 36.8952 26.5241 36.7805 26.4715ZM37.1627 27.211C37.0954 27.369 36.9541 27.4932 36.7731 27.5166C36.9271 27.4773 37.0813 27.3603 37.1627 27.211ZM36.4692 27.464C36.4033 27.431 36.3799 27.3943 36.3803 27.3584C36.4005 27.3934 36.4378 27.438 36.4692 27.464ZM36.4172 27.2761C36.4443 27.2436 36.4807 27.2156 36.5073 27.1963C36.4824 27.2416 36.4464 27.2614 36.4172 27.2761ZM36.52 26.9023C36.5061 26.8859 36.4893 26.8714 36.4701 26.8589L36.513 26.869L36.52 26.9025V26.9023ZM36.114 26.8135C35.7584 26.8808 35.3171 27.2187 35.2723 27.909C35.2792 27.5535 35.4397 27.2074 35.7292 26.9812C35.8729 26.869 35.991 26.8222 36.114 26.8135ZM35.5206 28.6702C35.541 28.6811 35.5623 28.6893 35.5843 28.6941L35.5465 28.7033C35.5376 28.6924 35.529 28.6813 35.5206 28.6702ZM35.9423 28.5344C36.0712 28.3967 36.1569 28.2257 36.2345 28.0554C36.1792 28.2146 36.1265 28.3958 35.9423 28.5344ZM36.3942 27.781C36.4948 27.6712 36.6172 27.6657 36.8811 27.6948C36.6287 27.6688 36.485 27.7064 36.3942 27.781Z" fill="url(#paint0_linear_999_1845)"/>
        <path d="M9.28273 12.0615C8.44409 14.1379 5.64702 22.5775 5.67599 24.5135H5.67647L23.7741 24.5224C23.9255 24.732 25.1923 29.0113 25.2416 29.4242C17.309 29.4131 9.33661 29.367 1.41285 29.4678C-2.28058 30.1051 2.44307 13.6268 3.42947 11.336L9.28273 12.0615ZM9.28273 12.0615L9.28417 12.0576C10.0577 10.1438 10.9868 8.30494 12.0887 6.8438C13.8905 4.50472 15.1683 4.3079 17.3317 6.54182C18.8893 8.15009 20.3755 10.7287 21.7223 13.6032L27.4333 14.3109C24.0584 6.39614 18.6747 -2.61985 11.7534 0.745257C7.65598 2.7375 5.00786 7.44822 3.42923 11.3362L9.28249 12.0617L9.28273 12.0615ZM28.5938 28.3774C28.6628 28.3123 28.7188 28.238 28.765 28.1577M31.0453 28.5815C31.0855 28.6225 31.1492 28.6381 31.2445 28.6203M29.186 29.0142C29.2195 28.9838 29.2516 28.9495 29.2811 28.9124M30.484 27.1268C30.4976 27.122 30.5115 27.1174 30.5254 27.1128M32.2752 29.0482C32.281 29.0585 32.287 29.0677 32.2934 29.0757M21.7225 13.6032C23.7892 18.0146 25.5273 23.1235 26.69 26.4954L27.2271 28.0533C28.7073 32.2478 30.0685 36.582 32.0458 40.8707C34.5414 46.2835 39.9282 56.3656 47.3359 53.4648C50.9076 52.0661 53.4803 48.1532 55.1677 44.8407C56.4896 42.2455 57.822 38.6066 58.7402 35.8117C59.5256 33.421 60.2888 30.683 60.8593 28.231C61.0324 27.4865 61.2621 25.377 60.974 24.7316C60.8507 24.4552 60.2402 24.5142 59.9833 24.5135C55.7015 24.4995 51.3993 24.5316 47.1139 24.5299C42.6203 24.5282 38.1261 24.5208 33.6326 24.5268L34.7871 28.0521L35.1363 29.2242C35.2074 29.4633 35.1286 29.4179 35.4155 29.4985C35.4562 29.5019 36.594 29.4336 38.1867 29.456C41.4658 29.5019 44.8307 29.4488 48.1199 29.4466C50.5829 29.4449 53.0461 29.4432 55.5092 29.4418C55.2381 31.0469 54.3451 33.5573 53.8228 35.1754C52.7995 38.3456 51.2122 42.2228 49.4715 45.0472C48.175 47.0942 45.866 50.1546 43.1704 48.5252C38.7923 45.8786 34.8233 35.2526 33.1486 30.3559C33.0064 29.9399 32.8665 29.5713 32.6876 29.1695C32.6002 29.1548 32.5327 29.1456 32.4798 29.1377C32.5303 29.1393 32.5938 29.1381 32.6747 29.136C32.6031 28.8193 32.2695 27.6924 32.0904 27.4906C32.0868 27.5499 32.0822 27.6061 32.076 27.6596C32.0753 26.7139 30.8944 23.5816 30.5762 22.667C29.9018 20.728 28.8424 17.6154 27.4333 14.3111L21.7223 13.6034L21.7225 13.6032ZM27.9491 27.6657C27.9609 27.6705 27.9731 27.6758 27.9853 27.6813C27.9874 27.7074 27.9886 27.7344 27.9889 27.7624C27.9822 27.7238 27.97 27.691 27.9491 27.6657ZM27.9992 28.553C28.0123 28.5733 28.0291 28.5889 28.0502 28.5993L28.014 28.6034C28.0085 28.5868 28.0035 28.5699 27.9992 28.553ZM29.0366 27.1888C29.0905 26.9373 29.1625 26.7238 29.3343 26.6213C29.2456 26.691 29.1645 26.7954 29.1168 26.9235C29.0847 27.0099 29.0589 27.0991 29.0363 27.1891L29.0366 27.1888ZM29.6741 26.5596C29.6848 26.5605 29.6956 26.5615 29.7066 26.5627C29.7145 26.5887 29.7217 26.6133 29.7282 26.637C29.7155 26.6032 29.6968 26.5776 29.6738 26.5596H29.6741ZM29.7646 26.7733C29.8063 26.9402 29.8163 27.0217 29.8391 27.0424C29.7979 27.047 29.8079 26.966 29.7646 26.7733ZM29.9792 26.9556C30.0764 26.8746 30.2409 26.7486 30.5323 26.6114C30.7713 26.4988 30.9454 26.4508 31.0695 26.4525C30.7314 26.4542 30.1545 26.8331 29.9794 26.9556H29.9792ZM31.256 26.5178C31.4481 26.7045 31.2649 27.2576 31.1215 27.7506C31.2364 27.3263 31.3791 26.8572 31.308 26.6114C31.2968 26.5723 31.279 26.5417 31.256 26.5178ZM31.7194 28.3832C31.8231 28.2944 31.9124 28.1862 31.9759 28.0648C31.9199 28.1881 31.8384 28.2916 31.7194 28.3832ZM27.7118 29.1451C27.7336 29.1345 27.765 29.1326 27.809 29.1287C27.7774 29.1352 27.7449 29.1408 27.7118 29.1451ZM28.6355 28.7797C28.6829 28.7455 28.6709 28.7515 28.6709 28.7993C28.6647 28.7848 28.6527 28.7788 28.6355 28.7797ZM29.4494 28.5815C29.5098 28.4015 29.5721 28.2129 29.6489 28.0318C29.573 28.2214 29.5143 28.4131 29.4494 28.5815ZM30.29 28.1382C30.1868 28.5894 30.1899 29.0028 30.7208 29.1085C30.8006 29.1244 30.8803 29.1268 30.9596 29.1186C30.7096 29.1625 30.4773 29.1121 30.3214 28.8716C30.1995 28.684 30.2241 28.4189 30.29 28.1382ZM7.27736 24.6332C7.85785 24.6332 10.9777 24.6078 12.8897 24.6257C12.7786 24.6298 12.6838 24.6332 12.615 24.6332C10.8357 24.6336 9.05667 24.6334 7.27736 24.6334V24.6332ZM14.2123 24.657C14.3043 24.6631 14.3651 24.6698 14.3874 24.6775C14.3984 24.6814 14.4219 24.6988 14.4554 24.7275C14.3905 24.6971 14.3074 24.6742 14.2123 24.657ZM3.56669 27.6471C4.02289 27.1695 4.24561 27.0072 3.56669 27.6471ZM2.05441 29.1598C2.10589 29.1046 2.16887 29.0349 2.25413 28.9517C3.21778 28.0115 2.63681 28.6415 2.05441 29.1598ZM1.72106 29.4138C1.69112 29.4293 1.66574 29.4384 1.64562 29.4399C1.59485 29.4435 1.55366 29.4469 1.52014 29.45C1.60874 29.4355 1.67148 29.4256 1.72106 29.4138ZM36.7805 26.4715C36.9242 26.5251 37.0274 26.6015 37.0959 26.6888C37.0104 26.5945 36.8952 26.5241 36.7805 26.4715ZM37.1627 27.211C37.0954 27.369 36.9541 27.4932 36.7731 27.5166C36.9271 27.4773 37.0813 27.3603 37.1627 27.211ZM36.4692 27.464C36.4033 27.431 36.3799 27.3943 36.3803 27.3584C36.4005 27.3934 36.4378 27.438 36.4692 27.464ZM36.4172 27.2761C36.4443 27.2436 36.4807 27.2156 36.5073 27.1963C36.4824 27.2416 36.4464 27.2614 36.4172 27.2761ZM36.52 26.9023C36.5061 26.8859 36.4893 26.8714 36.4701 26.8589L36.513 26.869L36.52 26.9025V26.9023ZM36.114 26.8135C35.7584 26.8808 35.3171 27.2187 35.2723 27.909C35.2792 27.5535 35.4397 27.2074 35.7292 26.9812C35.8729 26.869 35.991 26.8222 36.114 26.8135ZM35.5206 28.6702C35.541 28.6811 35.5623 28.6893 35.5843 28.6941L35.5465 28.7033C35.5376 28.6924 35.529 28.6813 35.5206 28.6702ZM35.9423 28.5344C36.0712 28.3967 36.1569 28.2257 36.2345 28.0554C36.1792 28.2146 36.1265 28.3957 35.9423 28.5344ZM36.3942 27.781C36.4948 27.6712 36.6172 27.6657 36.8811 27.6948C36.6287 27.6688 36.485 27.7064 36.3942 27.781Z" stroke="url(#paint1_linear_999_1845)" stroke-width="0.768653" stroke-miterlimit="2.61313" stroke-linecap="round" stroke-linejoin="round"/>
    </g>
    <defs>
        <linearGradient id="paint0_linear_999_1845" x1="30.5667" y1="0.0210266" x2="30.5667" y2="53.9788" gradientUnits="userSpaceOnUse">
            <stop stop-color="#00DF53"/>
            <stop offset="0.729167" stop-color="#1489C8"/>
        </linearGradient>
        <linearGradient id="paint1_linear_999_1845" x1="30.5667" y1="0.0210266" x2="30.5667" y2="53.9788" gradientUnits="userSpaceOnUse">
            <stop stop-color="#00DF53"/>
            <stop offset="0.729167" stop-color="#1489C8"/>
        </linearGradient>
        <clipPath id="clip0_999_1845">
            <rect width="61.1321" height="54" fill="white"/>
        </clipPath>
    </defs>
</svg>
